# xmcd
#
# Track frame offsets:
#	150
#	23920
#	42504
#	61959
#	76052
#	112908
#	126878
#	154039
#	187119
#	209262
#	238894
#	262516
#	290130
#
# Disc length: 4095 seconds
#
# Revision: 1
# Processed by: cddbd v1.5.2PL0 Copyright (c) Steve Scherf et al.
# Submitted via: audiograbber 1.83.01
#
DISCID=b20ffd0d
DTITLE=Popa Chubby - Deliveries After Dark
DYEAR=2007
DGENRE=Blues-Rock
TTITLE0=Let The Music Set You Free
TTITLE1=Sally Likes To Run
TTITLE2=Deliveries After Dark
TTITLE3=Theme From The Godfather
TTITLE4=Grown Man Crying Blues
TTITLE5=You Can't Stop Love
TTITLE6=I'll Piss On Your Grave
TTITLE7=Man Of The Blues
TTITLE8=Money Isn't Everything
TTITLE9=2nd Avenue Shuffle
TTITLE10=You Never Loved Me
TTITLE11=Woman In My Bed
TTITLE12=Oh Rock and Roll You Heartless Bitch
EXTD=
EXTT0=
EXTT1=
EXTT2=
EXTT3=
EXTT4=
EXTT5=
EXTT6=
EXTT7=
EXTT8=
EXTT9=
EXTT10=
EXTT11=
EXTT12=
PLAYORDER=
